REM DIRINDEX 1\2\6,1\2\7,1\2\8,1\3\9,1\3\10,1\3\11,1\4\12,1\4\13,1\4\14,1\5\15,1\5\16,1\5\17,1\5\18
REM DIRNAME cjc019,folder01,folder02,folder03,folder04,folder05,folder06,folder07,folder08,folder09,folder10,folder11,folder12,folder13,folder14,folder15,folder16,folder17
TITLE ""
FILE "2Q_k_101-110.mp3" MP3
  TRACK 01 AUDIO
    TITLE "9:cjc019_1984"
    INDEX 01 00:00:00
  TRACK 02 AUDIO
    TITLE "0:"
    INDEX 01 00:02:00
  TRACK 03 AUDIO
    TITLE "10:cjc019_1985"
    INDEX 01 00:02:55
  TRACK 04 AUDIO
    TITLE "0:"
    INDEX 01 00:04:48
  TRACK 05 AUDIO
    TITLE "11:cjc019_1986"
    INDEX 01 00:05:22
  TRACK 06 AUDIO
    TITLE "11:cjc019_1987"
    INDEX 01 00:07:17
  TRACK 07 AUDIO
    TITLE "0:"
    INDEX 01 00:11:15
  TRACK 08 AUDIO
    TITLE "9:cjc019_1988"
    INDEX 01 00:11:72
  TRACK 09 AUDIO
    TITLE "0:"
    INDEX 01 00:13:33
  TRACK 10 AUDIO
    TITLE "10:cjc019_1989"
    INDEX 01 00:14:15
  TRACK 11 AUDIO
    TITLE "0:"
    INDEX 01 00:15:48
  TRACK 12 AUDIO
    TITLE "11:cjc019_1990"
    INDEX 01 00:16:24
  TRACK 13 AUDIO
    TITLE "11:cjc019_1991"
    INDEX 01 00:19:26
  TRACK 14 AUDIO
    TITLE "0:"
    INDEX 01 00:24:24
  TRACK 15 AUDIO
    TITLE "9:cjc019_1992"
    INDEX 01 00:25:01
  TRACK 16 AUDIO
    TITLE "0:"
    INDEX 01 00:27:12
  TRACK 17 AUDIO
    TITLE "10:cjc019_1993"
    INDEX 01 00:27:65
  TRACK 18 AUDIO
    TITLE "0:"
    INDEX 01 00:29:01
  TRACK 19 AUDIO
    TITLE "11:cjc019_1994"
    INDEX 01 00:29:52
  TRACK 20 AUDIO
    TITLE "11:cjc019_1995"
    INDEX 01 00:31:37
  TRACK 21 AUDIO
    TITLE "0:"
    INDEX 01 00:33:64
  TRACK 22 AUDIO
    TITLE "9:cjc019_1996"
    INDEX 01 00:34:40
  TRACK 23 AUDIO
    TITLE "0:"
    INDEX 01 00:35:57
  TRACK 24 AUDIO
    TITLE "10:cjc019_1997"
    INDEX 01 00:36:38
  TRACK 25 AUDIO
    TITLE "0:"
    INDEX 01 00:38:39
  TRACK 26 AUDIO
    TITLE "11:cjc019_1998"
    INDEX 01 00:39:17
  TRACK 27 AUDIO
    TITLE "11:cjc019_1999"
    INDEX 01 00:41:38
  TRACK 28 AUDIO
    TITLE "0:"
    INDEX 01 00:44:30
  TRACK 29 AUDIO
    TITLE "9:cjc019_2000"
    INDEX 01 00:45:10
  TRACK 30 AUDIO
    TITLE "0:"
    INDEX 01 00:46:66
  TRACK 31 AUDIO
    TITLE "10:cjc019_2001"
    INDEX 01 00:47:32
  TRACK 32 AUDIO
    TITLE "0:"
    INDEX 01 00:51:36
  TRACK 33 AUDIO
    TITLE "11:cjc019_2002"
    INDEX 01 00:52:14
  TRACK 34 AUDIO
    TITLE "11:cjc019_2003"
    INDEX 01 00:54:23
  TRACK 35 AUDIO
    TITLE "0:"
    INDEX 01 00:56:18
  TRACK 36 AUDIO
    TITLE "9:cjc019_2004"
    INDEX 01 00:56:71
  TRACK 37 AUDIO
    TITLE "0:"
    INDEX 01 00:58:67
  TRACK 38 AUDIO
    TITLE "10:cjc019_2005"
    INDEX 01 00:59:43
  TRACK 39 AUDIO
    TITLE "0:"
    INDEX 01 01:01:09
  TRACK 40 AUDIO
    TITLE "11:cjc019_2006"
    INDEX 01 01:01:64
  TRACK 41 AUDIO
    TITLE "11:cjc019_2007"
    INDEX 01 01:05:15
  TRACK 42 AUDIO
    TITLE "0:"
    INDEX 01 01:06:40
  TRACK 43 AUDIO
    TITLE "9:cjc019_2008"
    INDEX 01 01:07:17
  TRACK 44 AUDIO
    TITLE "0:"
    INDEX 01 01:09:18
  TRACK 45 AUDIO
    TITLE "10:cjc019_2009"
    INDEX 01 01:09:71
  TRACK 46 AUDIO
    TITLE "0:"
    INDEX 01 01:13:36
  TRACK 47 AUDIO
    TITLE "11:cjc019_2010"
    INDEX 01 01:14:10
  TRACK 48 AUDIO
    TITLE "11:cjc019_2011"
    INDEX 01 01:21:23
  TRACK 49 AUDIO
    TITLE "0:"
    INDEX 01 01:24:49
  TRACK 50 AUDIO
    TITLE "9:cjc019_2012"
    INDEX 01 01:25:31
  TRACK 51 AUDIO
    TITLE "0:"
    INDEX 01 01:27:06
  TRACK 52 AUDIO
    TITLE "10:cjc019_2013"
    INDEX 01 01:27:61
  TRACK 53 AUDIO
    TITLE "0:"
    INDEX 01 01:29:60
  TRACK 54 AUDIO
    TITLE "11:cjc019_2014"
    INDEX 01 01:30:38
  TRACK 55 AUDIO
    TITLE "11:cjc019_2015"
    INDEX 01 01:34:22
  TRACK 56 AUDIO
    TITLE "0:"
    INDEX 01 01:36:66
  TRACK 57 AUDIO
    TITLE "9:cjc019_2016"
    INDEX 01 01:37:38
  TRACK 58 AUDIO
    TITLE "0:"
    INDEX 01 01:40:31
  TRACK 59 AUDIO
    TITLE "10:cjc019_2017"
    INDEX 01 01:41:07
  TRACK 60 AUDIO
    TITLE "0:"
    INDEX 01 01:43:45
  TRACK 61 AUDIO
    TITLE "11:cjc019_2018"
    INDEX 01 01:44:21
  TRACK 62 AUDIO
    TITLE "11:cjc019_2019"
    INDEX 01 01:48:05
  TRACK 63 AUDIO
    TITLE "0:"
    INDEX 01 01:54:60
  TRACK 64 AUDIO
    TITLE "9:cjc019_2020"
    INDEX 01 01:55:32
  TRACK 65 AUDIO
    TITLE "0:"
    INDEX 01 01:57:72
  TRACK 66 AUDIO
    TITLE "10:cjc019_2021"
    INDEX 01 01:58:52
  TRACK 67 AUDIO
    TITLE "0:"
    INDEX 01 02:00:45
  TRACK 68 AUDIO
    TITLE "11:cjc019_2022"
    INDEX 01 02:01:21
  TRACK 69 AUDIO
    TITLE "11:cjc019_2023"
    INDEX 01 02:03:67
  TRACK 70 AUDIO
    TITLE "0:"
    INDEX 01 02:05:13
